<svg width="246" height="30" viewBox="0 0 246 30" fill="none" xmlns="http://www.w3.org/2000/svg">
<path d="M24.5116 0.599998V29H17.9516V17.36H6.63156V29H0.0715626V0.599998H6.63156V11.6H17.9516V0.599998H24.5116ZM37.1144 0.599998H44.1944L53.9544 29H47.2344L45.0344 22.64H36.1944L34.0344 29H27.3144L37.1144 0.599998ZM43.9544 18.12L40.6344 7.2L37.2344 18.12H43.9544ZM73.4397 8.92C73.3597 8.78667 73.0797 8.58667 72.5997 8.32C72.1197 8.02667 71.5197 7.72 70.7997 7.4C70.0797 7.08 69.293 6.8 68.4397 6.56C67.5864 6.32 66.733 6.2 65.8797 6.2C64.7597 6.2 63.893 6.4 63.2797 6.8C62.6664 7.17333 62.3597 7.76 62.3597 8.56C62.3597 9.2 62.5864 9.70667 63.0397 10.08C63.5197 10.4533 64.1997 10.7867 65.0797 11.08C65.9597 11.3467 67.0397 11.6667 68.3197 12.04C70.133 12.52 71.7064 13.1067 73.0397 13.8C74.373 14.4667 75.3864 15.3333 76.0797 16.4C76.7997 17.4667 77.1597 18.88 77.1597 20.64C77.1597 22.24 76.8664 23.6 76.2797 24.72C75.693 25.8133 74.893 26.7067 73.8797 27.4C72.893 28.0667 71.7597 28.56 70.4797 28.88C69.1997 29.1733 67.8797 29.32 66.5197 29.32C65.133 29.32 63.7064 29.1867 62.2397 28.92C60.7997 28.6267 59.413 28.2267 58.0797 27.72C56.7464 27.1867 55.5197 26.5467 54.3997 25.8L57.2797 20.08C57.3864 20.2133 57.733 20.4667 58.3197 20.84C58.9064 21.1867 59.6264 21.56 60.4797 21.96C61.3597 22.3333 62.333 22.6667 63.3997 22.96C64.4664 23.2533 65.5464 23.4 66.6397 23.4C67.813 23.4 68.6797 23.2133 69.2397 22.84C69.8264 22.4667 70.1197 21.9467 70.1197 21.28C70.1197 20.56 69.813 20 69.1997 19.6C68.613 19.2 67.7997 18.84 66.7597 18.52C65.7464 18.2 64.573 17.84 63.2397 17.44C61.5064 16.9067 60.0664 16.3067 58.9197 15.64C57.7997 14.9733 56.9597 14.16 56.3997 13.2C55.8664 12.24 55.5997 11.04 55.5997 9.6C55.5997 7.6 56.0664 5.92 56.9997 4.56C57.9597 3.17333 59.2397 2.13333 60.8397 1.44C62.4397 0.719999 64.1864 0.359999 66.0797 0.359999C67.413 0.359999 68.693 0.519999 69.9197 0.839998C71.173 1.16 72.333 1.56 73.3997 2.04C74.493 2.52 75.4664 3 76.3197 3.48L73.4397 8.92ZM105.449 0.599998V29H98.8891V17.36H87.5691V29H81.0091V0.599998H87.5691V11.6H98.8891V0.599998H105.449ZM134.372 21.72C134.372 23.3467 133.932 24.7067 133.052 25.8C132.199 26.8667 131.039 27.6667 129.572 28.2C128.105 28.7333 126.492 29 124.732 29H110.892V0.599998H126.692C128.025 0.599998 129.172 0.959999 130.132 1.68C131.119 2.37333 131.865 3.28 132.372 4.4C132.905 5.52 133.172 6.68 133.172 7.88C133.172 9.21333 132.825 10.4933 132.132 11.72C131.439 12.92 130.425 13.8267 129.092 14.44C130.719 14.92 131.999 15.7733 132.932 17C133.892 18.2267 134.372 19.8 134.372 21.72ZM127.692 20.4C127.692 19.7867 127.572 19.2533 127.332 18.8C127.092 18.32 126.772 17.9467 126.372 17.68C125.999 17.3867 125.545 17.24 125.012 17.24H117.452V23.44H124.732C125.292 23.44 125.785 23.3067 126.212 23.04C126.665 22.7733 127.025 22.4133 127.292 21.96C127.559 21.5067 127.692 20.9867 127.692 20.4ZM117.452 6.2V12.08H123.892C124.372 12.08 124.812 11.9733 125.212 11.76C125.639 11.5467 125.985 11.2267 126.252 10.8C126.519 10.3467 126.652 9.78667 126.652 9.12C126.652 8.48 126.532 7.94667 126.292 7.52C126.079 7.09333 125.785 6.77333 125.412 6.56C125.039 6.32 124.612 6.2 124.132 6.2H117.452ZM150.676 29.24C148.542 29.24 146.609 28.84 144.876 28.04C143.169 27.2133 141.689 26.12 140.436 24.76C139.209 23.3733 138.262 21.8267 137.596 20.12C136.929 18.3867 136.596 16.6 136.596 14.76C136.596 12.8667 136.942 11.0667 137.636 9.36C138.356 7.65333 139.342 6.13333 140.596 4.8C141.876 3.44 143.382 2.37333 145.116 1.6C146.849 0.826665 148.742 0.439998 150.796 0.439998C152.902 0.439998 154.809 0.853332 156.516 1.68C158.249 2.48 159.729 3.57333 160.956 4.96C162.209 6.34667 163.169 7.90667 163.836 9.64C164.502 11.3467 164.836 13.0933 164.836 14.88C164.836 16.7733 164.489 18.5733 163.796 20.28C163.102 21.9867 162.116 23.52 160.836 24.88C159.556 26.2133 158.049 27.28 156.316 28.08C154.609 28.8533 152.729 29.24 150.676 29.24ZM143.276 14.84C143.276 15.9333 143.436 17 143.756 18.04C144.076 19.0533 144.542 19.96 145.156 20.76C145.796 21.56 146.582 22.2 147.516 22.68C148.449 23.16 149.516 23.4 150.716 23.4C151.969 23.4 153.062 23.16 153.996 22.68C154.929 22.1733 155.702 21.5067 156.316 20.68C156.929 19.8533 157.382 18.9333 157.676 17.92C157.996 16.88 158.156 15.8267 158.156 14.76C158.156 13.6667 157.996 12.6133 157.676 11.6C157.356 10.5867 156.876 9.68 156.236 8.88C155.596 8.05333 154.809 7.41333 153.876 6.96C152.942 6.50667 151.889 6.28 150.716 6.28C149.462 6.28 148.369 6.52 147.436 7C146.529 7.48 145.756 8.13333 145.116 8.96C144.502 9.76 144.036 10.68 143.716 11.72C143.422 12.7333 143.276 13.7733 143.276 14.84ZM174.653 0.599998H181.733L191.493 29H184.773L182.573 22.64H173.733L171.573 29H164.853L174.653 0.599998ZM181.493 18.12L178.173 7.2L174.773 18.12H181.493ZM194.29 29V0.599998H207.09C208.424 0.599998 209.65 0.879999 210.77 1.44C211.917 1.97333 212.904 2.70667 213.73 3.64C214.557 4.54667 215.197 5.57333 215.65 6.72C216.13 7.86667 216.37 9.02667 216.37 10.2C216.37 11.3733 216.184 12.4933 215.81 13.56C215.437 14.6 214.904 15.5467 214.21 16.4C213.517 17.2267 212.69 17.9067 211.73 18.44L217.97 29H210.73L205.29 19.84H200.85V29H194.29ZM200.85 14.12H206.85C207.384 14.12 207.85 13.96 208.25 13.64C208.677 13.2933 209.024 12.8267 209.29 12.24C209.557 11.6533 209.69 10.9733 209.69 10.2C209.69 9.42667 209.53 8.76 209.21 8.2C208.917 7.61333 208.544 7.16 208.09 6.84C207.637 6.52 207.157 6.36 206.65 6.36H200.85V14.12ZM221.087 29V0.599998H231.687C234.807 0.599998 237.407 1.24 239.487 2.52C241.594 3.77333 243.181 5.48 244.247 7.64C245.314 9.77333 245.847 12.1467 245.847 14.76C245.847 17.64 245.261 20.1467 244.087 22.28C242.914 24.4133 241.261 26.0667 239.127 27.24C237.021 28.4133 234.541 29 231.687 29H221.087ZM239.167 14.76C239.167 13.1067 238.874 11.6533 238.287 10.4C237.701 9.12 236.847 8.13333 235.727 7.44C234.607 6.72 233.261 6.36 231.687 6.36H227.647V23.24H231.687C233.287 23.24 234.634 22.88 235.727 22.16C236.847 21.4133 237.701 20.4 238.287 19.12C238.874 17.8133 239.167 16.36 239.167 14.76Z" fill="black"/>
</svg>
